<svg id="visual" viewBox="0 0 960 100" width="960" height="100" xmlns="http://www.w3.org/2000/svg" xmlns:xlink="http://www.w3.org/1999/xlink" version="1.1"><path d="M0 55L13.3 55.5C26.7 56 53.3 57 80 57.5C106.7 58 133.3 58 160 57C186.7 56 213.3 54 240 53.2C266.7 52.3 293.3 52.7 320 52.7C346.7 52.7 373.3 52.3 400 52.3C426.7 52.3 453.3 52.7 480 52.3C506.7 52 533.3 51 560 51.3C586.7 51.7 613.3 53.3 640 54C666.7 54.7 693.3 54.3 720 54.8C746.7 55.3 773.3 56.7 800 57.2C826.7 57.7 853.3 57.3 880 57C906.7 56.7 933.3 56.3 946.7 56.2L960 56L960 0L946.7 0C933.3 0 906.7 0 880 0C853.3 0 826.7 0 800 0C773.3 0 746.7 0 720 0C693.3 0 666.7 0 640 0C613.3 0 586.7 0 560 0C533.3 0 506.7 0 480 0C453.3 0 426.7 0 400 0C373.3 0 346.7 0 320 0C293.3 0 266.7 0 240 0C213.3 0 186.7 0 160 0C133.3 0 106.7 0 80 0C53.3 0 26.7 0 13.3 0L0 0Z" fill="#ffffff"></path><path d="M0 50L13.3 49.8C26.7 49.7 53.3 49.3 80 48.8C106.7 48.3 133.3 47.7 160 48.5C186.7 49.3 213.3 51.7 240 52.3C266.7 53 293.3 52 320 51.8C346.7 51.7 373.3 52.3 400 51.5C426.7 50.7 453.3 48.3 480 48C506.7 47.7 533.3 49.3 560 50C586.7 50.7 613.3 50.3 640 49.7C666.7 49 693.3 48 720 47.3C746.7 46.7 773.3 46.3 800 46.3C826.7 46.3 853.3 46.7 880 46.7C906.7 46.7 933.3 46.3 946.7 46.2L960 46L960 0L946.7 0C933.3 0 906.7 0 880 0C853.3 0 826.7 0 800 0C773.3 0 746.7 0 720 0C693.3 0 666.7 0 640 0C613.3 0 586.7 0 560 0C533.3 0 506.7 0 480 0C453.3 0 426.7 0 400 0C373.3 0 346.7 0 320 0C293.3 0 266.7 0 240 0C213.3 0 186.7 0 160 0C133.3 0 106.7 0 80 0C53.3 0 26.7 0 13.3 0L0 0Z" fill="#e5e5e5"></path><path d="M0 45L13.3 45.5C26.7 46 53.3 47 80 46.7C106.7 46.3 133.3 44.7 160 43.7C186.7 42.7 213.3 42.3 240 42.5C266.7 42.7 293.3 43.3 320 43.3C346.7 43.3 373.3 42.7 400 42.5C426.7 42.3 453.3 42.7 480 43.5C506.7 44.3 533.3 45.7 560 46.8C586.7 48 613.3 49 640 48.7C666.7 48.3 693.3 46.7 720 45.8C746.7 45 773.3 45 800 44.5C826.7 44 853.3 43 880 42.5C906.7 42 933.3 42 946.7 42L960 42L960 0L946.7 0C933.3 0 906.7 0 880 0C853.3 0 826.7 0 800 0C773.3 0 746.7 0 720 0C693.3 0 666.7 0 640 0C613.3 0 586.7 0 560 0C533.3 0 506.7 0 480 0C453.3 0 426.7 0 400 0C373.3 0 346.7 0 320 0C293.3 0 266.7 0 240 0C213.3 0 186.7 0 160 0C133.3 0 106.7 0 80 0C53.3 0 26.7 0 13.3 0L0 0Z" fill="#cbcbcb"></path><path d="M0 43L13.3 43C26.7 43 53.3 43 80 42C106.7 41 133.3 39 160 38.3C186.7 37.7 213.3 38.3 240 39C266.7 39.7 293.3 40.3 320 40.8C346.7 41.3 373.3 41.7 400 42.2C426.7 42.7 453.3 43.3 480 43.8C506.7 44.3 533.3 44.7 560 43.7C586.7 42.7 613.3 40.3 640 39.8C666.7 39.3 693.3 40.7 720 40.3C746.7 40 773.3 38 800 37.7C826.7 37.3 853.3 38.7 880 38.8C906.7 39 933.3 38 946.7 37.5L960 37L960 0L946.7 0C933.3 0 906.7 0 880 0C853.3 0 826.7 0 800 0C773.3 0 746.7 0 720 0C693.3 0 666.7 0 640 0C613.3 0 586.7 0 560 0C533.3 0 506.7 0 480 0C453.3 0 426.7 0 400 0C373.3 0 346.7 0 320 0C293.3 0 266.7 0 240 0C213.3 0 186.7 0 160 0C133.3 0 106.7 0 80 0C53.3 0 26.7 0 13.3 0L0 0Z" fill="#b2b2b2"></path><path d="M0 39L13.3 38C26.7 37 53.3 35 80 34.3C106.7 33.7 133.3 34.3 160 35C186.7 35.7 213.3 36.3 240 36.8C266.7 37.3 293.3 37.7 320 37.2C346.7 36.7 373.3 35.3 400 34.3C426.7 33.3 453.3 32.7 480 33.2C506.7 33.7 533.3 35.3 560 36.5C586.7 37.7 613.3 38.3 640 38.7C666.7 39 693.3 39 720 37.7C746.7 36.3 773.3 33.7 800 32.8C826.7 32 853.3 33 880 33.8C906.7 34.7 933.3 35.3 946.7 35.7L960 36L960 0L946.7 0C933.3 0 906.7 0 880 0C853.3 0 826.7 0 800 0C773.3 0 746.7 0 720 0C693.3 0 666.7 0 640 0C613.3 0 586.7 0 560 0C533.3 0 506.7 0 480 0C453.3 0 426.7 0 400 0C373.3 0 346.7 0 320 0C293.3 0 266.7 0 240 0C213.3 0 186.7 0 160 0C133.3 0 106.7 0 80 0C53.3 0 26.7 0 13.3 0L0 0Z" fill="#9a9a9a"></path><path d="M0 32L13.3 31.7C26.7 31.3 53.3 30.7 80 30C106.7 29.3 133.3 28.7 160 29C186.7 29.3 213.3 30.7 240 31.2C266.7 31.7 293.3 31.3 320 31.8C346.7 32.3 373.3 33.7 400 33C426.7 32.3 453.3 29.7 480 29.7C506.7 29.7 533.3 32.3 560 32.8C586.7 33.3 613.3 31.7 640 30.7C666.7 29.7 693.3 29.3 720 29C746.7 28.7 773.3 28.3 800 29.2C826.7 30 853.3 32 880 32.8C906.7 33.7 933.3 33.3 946.7 33.2L960 33L960 0L946.7 0C933.3 0 906.7 0 880 0C853.3 0 826.7 0 800 0C773.3 0 746.7 0 720 0C693.3 0 666.7 0 640 0C613.3 0 586.7 0 560 0C533.3 0 506.7 0 480 0C453.3 0 426.7 0 400 0C373.3 0 346.7 0 320 0C293.3 0 266.7 0 240 0C213.3 0 186.7 0 160 0C133.3 0 106.7 0 80 0C53.3 0 26.7 0 13.3 0L0 0Z" fill="#838383"></path><path d="M0 24L13.3 24.7C26.7 25.3 53.3 26.7 80 27.2C106.7 27.7 133.3 27.3 160 27.5C186.7 27.7 213.3 28.3 240 28.2C266.7 28 293.3 27 320 26.7C346.7 26.3 373.3 26.7 400 26.5C426.7 26.3 453.3 25.7 480 25C506.7 24.3 533.3 23.7 560 24C586.7 24.3 613.3 25.7 640 26.5C666.7 27.3 693.3 27.7 720 27.8C746.7 28 773.3 28 800 27C826.7 26 853.3 24 880 23.5C906.7 23 933.3 24 946.7 24.5L960 25L960 0L946.7 0C933.3 0 906.7 0 880 0C853.3 0 826.7 0 800 0C773.3 0 746.7 0 720 0C693.3 0 666.7 0 640 0C613.3 0 586.7 0 560 0C533.3 0 506.7 0 480 0C453.3 0 426.7 0 400 0C373.3 0 346.7 0 320 0C293.3 0 266.7 0 240 0C213.3 0 186.7 0 160 0C133.3 0 106.7 0 80 0C53.3 0 26.7 0 13.3 0L0 0Z" fill="#6c6c6c"></path><path d="M0 25L13.3 25.2C26.7 25.3 53.3 25.7 80 25C106.7 24.3 133.3 22.7 160 22.3C186.7 22 213.3 23 240 23.2C266.7 23.3 293.3 22.7 320 22.7C346.7 22.7 373.3 23.3 400 23.3C426.7 23.3 453.3 22.7 480 21.8C506.7 21 533.3 20 560 20C586.7 20 613.3 21 640 21.5C666.7 22 693.3 22 720 21.3C746.7 20.7 773.3 19.3 800 19.2C826.7 19 853.3 20 880 21.2C906.7 22.3 933.3 23.7 946.7 24.3L960 25L960 0L946.7 0C933.3 0 906.7 0 880 0C853.3 0 826.7 0 800 0C773.3 0 746.7 0 720 0C693.3 0 666.7 0 640 0C613.3 0 586.7 0 560 0C533.3 0 506.7 0 480 0C453.3 0 426.7 0 400 0C373.3 0 346.7 0 320 0C293.3 0 266.7 0 240 0C213.3 0 186.7 0 160 0C133.3 0 106.7 0 80 0C53.3 0 26.7 0 13.3 0L0 0Z" fill="#565656"></path><path d="M0 21L13.3 19.7C26.7 18.3 53.3 15.7 80 14.5C106.7 13.3 133.3 13.7 160 14.7C186.7 15.7 213.3 17.3 240 18.5C266.7 19.7 293.3 20.3 320 19.7C346.7 19 373.3 17 400 17C426.7 17 453.3 19 480 18.8C506.7 18.7 533.3 16.3 560 16.2C586.7 16 613.3 18 640 18.8C666.7 19.7 693.3 19.3 720 18.3C746.7 17.3 773.3 15.7 800 15.3C826.7 15 853.3 16 880 16.5C906.7 17 933.3 17 946.7 17L960 17L960 0L946.7 0C933.3 0 906.7 0 880 0C853.3 0 826.7 0 800 0C773.3 0 746.7 0 720 0C693.3 0 666.7 0 640 0C613.3 0 586.7 0 560 0C533.3 0 506.7 0 480 0C453.3 0 426.7 0 400 0C373.3 0 346.7 0 320 0C293.3 0 266.7 0 240 0C213.3 0 186.7 0 160 0C133.3 0 106.7 0 80 0C53.3 0 26.7 0 13.3 0L0 0Z" fill="#404040"></path><path d="M0 13L13.3 13.5C26.7 14 53.3 15 80 15.5C106.7 16 133.3 16 160 15.5C186.7 15 213.3 14 240 13.5C266.7 13 293.3 13 320 12.5C346.7 12 373.3 11 400 11.2C426.7 11.3 453.3 12.7 480 13.5C506.7 14.3 533.3 14.7 560 15.2C586.7 15.7 613.3 16.3 640 15.3C666.7 14.3 693.3 11.7 720 11.5C746.7 11.3 773.3 13.7 800 13.7C826.7 13.7 853.3 11.3 880 11.2C906.7 11 933.3 13 946.7 14L960 15L960 0L946.7 0C933.3 0 906.7 0 880 0C853.3 0 826.7 0 800 0C773.3 0 746.7 0 720 0C693.3 0 666.7 0 640 0C613.3 0 586.7 0 560 0C533.3 0 506.7 0 480 0C453.3 0 426.7 0 400 0C373.3 0 346.7 0 320 0C293.3 0 266.7 0 240 0C213.3 0 186.7 0 160 0C133.3 0 106.7 0 80 0C53.3 0 26.7 0 13.3 0L0 0Z" fill="#2c2c2c"></path><path d="M0 7L13.3 6.7C26.7 6.3 53.3 5.7 80 5.5C106.7 5.3 133.3 5.7 160 6.7C186.7 7.7 213.3 9.3 240 10.3C266.7 11.3 293.3 11.7 320 10.5C346.7 9.3 373.3 6.7 400 5.8C426.7 5 453.3 6 480 7.3C506.7 8.7 533.3 10.3 560 10.7C586.7 11 613.3 10 640 9.5C666.7 9 693.3 9 720 9C746.7 9 773.3 9 800 8.5C826.7 8 853.3 7 880 7.2C906.7 7.3 933.3 8.7 946.7 9.3L960 10L960 0L946.7 0C933.3 0 906.7 0 880 0C853.3 0 826.7 0 800 0C773.3 0 746.7 0 720 0C693.3 0 666.7 0 640 0C613.3 0 586.7 0 560 0C533.3 0 506.7 0 480 0C453.3 0 426.7 0 400 0C373.3 0 346.7 0 320 0C293.3 0 266.7 0 240 0C213.3 0 186.7 0 160 0C133.3 0 106.7 0 80 0C53.3 0 26.7 0 13.3 0L0 0Z" fill="#1a1a1a"></path><path d="M0 5L13.3 4.7C26.7 4.3 53.3 3.7 80 3.3C106.7 3 133.3 3 160 3.5C186.7 4 213.3 5 240 4.7C266.7 4.3 293.3 2.7 320 1.8C346.7 1 373.3 1 400 0.8C426.7 0.7 453.3 0.3 480 1.3C506.7 2.3 533.3 4.7 560 5.5C586.7 6.3 613.3 5.7 640 4.8C666.7 4 693.3 3 720 2.2C746.7 1.3 773.3 0.7 800 0.7C826.7 0.7 853.3 1.3 880 2C906.7 2.7 933.3 3.3 946.7 3.7L960 4L960 0L946.7 0C933.3 0 906.7 0 880 0C853.3 0 826.7 0 800 0C773.3 0 746.7 0 720 0C693.3 0 666.7 0 640 0C613.3 0 586.7 0 560 0C533.3 0 506.7 0 480 0C453.3 0 426.7 0 400 0C373.3 0 346.7 0 320 0C293.3 0 266.7 0 240 0C213.3 0 186.7 0 160 0C133.3 0 106.7 0 80 0C53.3 0 26.7 0 13.3 0L0 0Z" fill="#000000"></path></svg>