<svg id="visual" viewBox="0 0 960 300" width="960" height="300" xmlns="http://www.w3.org/2000/svg" xmlns:xlink="http://www.w3.org/1999/xlink" version="1.1"><path d="M0 33L22.8 36.8C45.7 40.7 91.3 48.3 137 49C182.7 49.7 228.3 43.3 274 44.8C319.7 46.3 365.3 55.7 411.2 55.7C457 55.7 503 46.3 548.8 46.2C594.7 46 640.3 55 686 60.3C731.7 65.7 777.3 67.3 823 67.3C868.7 67.3 914.3 65.7 937.2 64.8L960 64L960 301L937.2 301C914.3 301 868.7 301 823 301C777.3 301 731.7 301 686 301C640.3 301 594.7 301 548.8 301C503 301 457 301 411.2 301C365.3 301 319.7 301 274 301C228.3 301 182.7 301 137 301C91.3 301 45.7 301 22.8 301L0 301Z" fill="#9c998e"></path><path d="M0 107L22.8 105.2C45.7 103.3 91.3 99.7 137 97.8C182.7 96 228.3 96 274 98.8C319.7 101.7 365.3 107.3 411.2 110C457 112.7 503 112.3 548.8 112.8C594.7 113.3 640.3 114.7 686 113.8C731.7 113 777.3 110 823 106.8C868.7 103.7 914.3 100.3 937.2 98.7L960 97L960 301L937.2 301C914.3 301 868.7 301 823 301C777.3 301 731.7 301 686 301C640.3 301 594.7 301 548.8 301C503 301 457 301 411.2 301C365.3 301 319.7 301 274 301C228.3 301 182.7 301 137 301C91.3 301 45.7 301 22.8 301L0 301Z" fill="#737066"></path><path d="M0 143L22.8 145.7C45.7 148.3 91.3 153.7 137 153.7C182.7 153.7 228.3 148.3 274 150C319.7 151.7 365.3 160.3 411.2 162.3C457 164.3 503 159.7 548.8 159.7C594.7 159.7 640.3 164.3 686 166.3C731.7 168.3 777.3 167.7 823 161C868.7 154.3 914.3 141.7 937.2 135.3L960 129L960 301L937.2 301C914.3 301 868.7 301 823 301C777.3 301 731.7 301 686 301C640.3 301 594.7 301 548.8 301C503 301 457 301 411.2 301C365.3 301 319.7 301 274 301C228.3 301 182.7 301 137 301C91.3 301 45.7 301 22.8 301L0 301Z" fill="#4d4a41"></path><path d="M0 195L22.8 198.5C45.7 202 91.3 209 137 210.5C182.7 212 228.3 208 274 205.3C319.7 202.7 365.3 201.3 411.2 199C457 196.7 503 193.3 548.8 194.3C594.7 195.3 640.3 200.7 686 204.5C731.7 208.3 777.3 210.7 823 211.7C868.7 212.7 914.3 212.3 937.2 212.2L960 212L960 301L937.2 301C914.3 301 868.7 301 823 301C777.3 301 731.7 301 686 301C640.3 301 594.7 301 548.8 301C503 301 457 301 411.2 301C365.3 301 319.7 301 274 301C228.3 301 182.7 301 137 301C91.3 301 45.7 301 22.8 301L0 301Z" fill="#2a271f"></path><path d="M0 264L22.8 264.5C45.7 265 91.3 266 137 261.7C182.7 257.3 228.3 247.7 274 244.2C319.7 240.7 365.3 243.3 411.2 242.8C457 242.3 503 238.7 548.8 237C594.7 235.3 640.3 235.7 686 235.7C731.7 235.7 777.3 235.3 823 238.5C868.7 241.7 914.3 248.3 937.2 251.7L960 255L960 301L937.2 301C914.3 301 868.7 301 823 301C777.3 301 731.7 301 686 301C640.3 301 594.7 301 548.8 301C503 301 457 301 411.2 301C365.3 301 319.7 301 274 301C228.3 301 182.7 301 137 301C91.3 301 45.7 301 22.8 301L0 301Z" fill="#000000"></path></svg>