<svg id="visual" viewBox="0 0 960 300" width="960" height="300" xmlns="http://www.w3.org/2000/svg" xmlns:xlink="http://www.w3.org/1999/xlink" version="1.1"><rect x="0" y="0" width="960" height="300" fill="#14141e"></rect><path d="M0 130L22.8 125.5C45.7 121 91.3 112 137 105.2C182.7 98.3 228.3 93.7 274 97.7C319.7 101.7 365.3 114.3 411.2 120C457 125.7 503 124.3 548.8 125.3C594.7 126.3 640.3 129.7 686 127.3C731.7 125 777.3 117 823 113.7C868.7 110.3 914.3 111.7 937.2 112.3L960 113L960 0L937.2 0C914.3 0 868.7 0 823 0C777.3 0 731.7 0 686 0C640.3 0 594.7 0 548.8 0C503 0 457 0 411.2 0C365.3 0 319.7 0 274 0C228.3 0 182.7 0 137 0C91.3 0 45.7 0 22.8 0L0 0Z" fill="#9c998e"></path><path d="M0 67L22.8 70.7C45.7 74.3 91.3 81.7 137 82.3C182.7 83 228.3 77 274 78.2C319.7 79.3 365.3 87.7 411.2 90.3C457 93 503 90 548.8 86.2C594.7 82.3 640.3 77.7 686 82.3C731.7 87 777.3 101 823 103C868.7 105 914.3 95 937.2 90L960 85L960 0L937.2 0C914.3 0 868.7 0 823 0C777.3 0 731.7 0 686 0C640.3 0 594.7 0 548.8 0C503 0 457 0 411.2 0C365.3 0 319.7 0 274 0C228.3 0 182.7 0 137 0C91.3 0 45.7 0 22.8 0L0 0Z" fill="#bbb7aa"></path><path d="M0 52L22.8 55.7C45.7 59.3 91.3 66.7 137 70C182.7 73.3 228.3 72.7 274 72.2C319.7 71.7 365.3 71.3 411.2 68.2C457 65 503 59 548.8 57.5C594.7 56 640.3 59 686 60C731.7 61 777.3 60 823 63.2C868.7 66.3 914.3 73.7 937.2 77.3L960 81L960 0L937.2 0C914.3 0 868.7 0 823 0C777.3 0 731.7 0 686 0C640.3 0 594.7 0 548.8 0C503 0 457 0 411.2 0C365.3 0 319.7 0 274 0C228.3 0 182.7 0 137 0C91.3 0 45.7 0 22.8 0L0 0Z" fill="#dbd7c6"></path><path d="M0 53L22.8 48.7C45.7 44.3 91.3 35.7 137 31.3C182.7 27 228.3 27 274 25.7C319.7 24.3 365.3 21.7 411.2 23.5C457 25.3 503 31.7 548.8 35.5C594.7 39.3 640.3 40.7 686 42C731.7 43.3 777.3 44.7 823 45.3C868.7 46 914.3 46 937.2 46L960 46L960 0L937.2 0C914.3 0 868.7 0 823 0C777.3 0 731.7 0 686 0C640.3 0 594.7 0 548.8 0C503 0 457 0 411.2 0C365.3 0 319.7 0 274 0C228.3 0 182.7 0 137 0C91.3 0 45.7 0 22.8 0L0 0Z" fill="#fdf7e3"></path></svg>