<svg id="visual" viewBox="0 0 960 300" width="960" height="300" xmlns="http://www.w3.org/2000/svg" xmlns:xlink="http://www.w3.org/1999/xlink" version="1.1"><rect x="0" y="0" width="960" height="300" fill="#000000"></rect><path d="M0 158L10 154.5C20 151 40 144 60 144.2C80 144.3 100 151.7 120 154C140 156.3 160 153.7 180 152.2C200 150.7 220 150.3 240 148.2C260 146 280 142 300 139.7C320 137.3 340 136.7 360 140C380 143.3 400 150.7 420 152.2C440 153.7 460 149.3 480 148.8C500 148.3 520 151.7 540 152.3C560 153 580 151 600 148.2C620 145.3 640 141.7 660 140C680 138.3 700 138.7 720 140.3C740 142 760 145 780 144.2C800 143.3 820 138.7 840 138.2C860 137.7 880 141.3 900 145.8C920 150.3 940 155.7 950 158.3L960 161L960 0L950 0C940 0 920 0 900 0C880 0 860 0 840 0C820 0 800 0 780 0C760 0 740 0 720 0C700 0 680 0 660 0C640 0 620 0 600 0C580 0 560 0 540 0C520 0 500 0 480 0C460 0 440 0 420 0C400 0 380 0 360 0C340 0 320 0 300 0C280 0 260 0 240 0C220 0 200 0 180 0C160 0 140 0 120 0C100 0 80 0 60 0C40 0 20 0 10 0L0 0Z" fill="#848383"></path><path d="M0 123L10 122.3C20 121.7 40 120.3 60 119.2C80 118 100 117 120 118.8C140 120.7 160 125.3 180 125.7C200 126 220 122 240 119.3C260 116.7 280 115.3 300 115C320 114.7 340 115.3 360 114.5C380 113.7 400 111.3 420 110C440 108.7 460 108.3 480 112.2C500 116 520 124 540 125.2C560 126.3 580 120.7 600 118.5C620 116.3 640 117.7 660 116.8C680 116 700 113 720 114.3C740 115.7 760 121.3 780 121.2C800 121 820 115 840 115.5C860 116 880 123 900 126.3C920 129.7 940 129.3 950 129.2L960 129L960 0L950 0C940 0 920 0 900 0C880 0 860 0 840 0C820 0 800 0 780 0C760 0 740 0 720 0C700 0 680 0 660 0C640 0 620 0 600 0C580 0 560 0 540 0C520 0 500 0 480 0C460 0 440 0 420 0C400 0 380 0 360 0C340 0 320 0 300 0C280 0 260 0 240 0C220 0 200 0 180 0C160 0 140 0 120 0C100 0 80 0 60 0C40 0 20 0 10 0L0 0Z" fill="#a1a0a0"></path><path d="M0 75L10 77.2C20 79.3 40 83.7 60 85.3C80 87 100 86 120 86C140 86 160 87 180 86C200 85 220 82 240 81.3C260 80.7 280 82.3 300 82.7C320 83 340 82 360 83.2C380 84.3 400 87.7 420 87.5C440 87.3 460 83.7 480 83.3C500 83 520 86 540 89.3C560 92.7 580 96.3 600 98.3C620 100.3 640 100.7 660 101.2C680 101.7 700 102.3 720 101.5C740 100.7 760 98.3 780 95.7C800 93 820 90 840 89C860 88 880 89 900 91.7C920 94.3 940 98.7 950 100.8L960 103L960 0L950 0C940 0 920 0 900 0C880 0 860 0 840 0C820 0 800 0 780 0C760 0 740 0 720 0C700 0 680 0 660 0C640 0 620 0 600 0C580 0 560 0 540 0C520 0 500 0 480 0C460 0 440 0 420 0C400 0 380 0 360 0C340 0 320 0 300 0C280 0 260 0 240 0C220 0 200 0 180 0C160 0 140 0 120 0C100 0 80 0 60 0C40 0 20 0 10 0L0 0Z" fill="#c0bfbf"></path><path d="M0 47L10 47C20 47 40 47 60 50.5C80 54 100 61 120 64.7C140 68.3 160 68.7 180 64.8C200 61 220 53 240 48.8C260 44.7 280 44.3 300 48.7C320 53 340 62 360 64C380 66 400 61 420 61.3C440 61.7 460 67.3 480 66.3C500 65.3 520 57.7 540 54.2C560 50.7 580 51.3 600 52.3C620 53.3 640 54.7 660 57.2C680 59.7 700 63.3 720 63.2C740 63 760 59 780 56.3C800 53.7 820 52.3 840 52.5C860 52.7 880 54.3 900 56.2C920 58 940 60 950 61L960 62L960 0L950 0C940 0 920 0 900 0C880 0 860 0 840 0C820 0 800 0 780 0C760 0 740 0 720 0C700 0 680 0 660 0C640 0 620 0 600 0C580 0 560 0 540 0C520 0 500 0 480 0C460 0 440 0 420 0C400 0 380 0 360 0C340 0 320 0 300 0C280 0 260 0 240 0C220 0 200 0 180 0C160 0 140 0 120 0C100 0 80 0 60 0C40 0 20 0 10 0L0 0Z" fill="#dfdfdf"></path><path d="M0 26L10 28.5C20 31 40 36 60 38.3C80 40.7 100 40.3 120 37.2C140 34 160 28 180 27.5C200 27 220 32 240 33.7C260 35.3 280 33.7 300 30.8C320 28 340 24 360 25.5C380 27 400 34 420 34C440 34 460 27 480 26C500 25 520 30 540 31.7C560 33.3 580 31.7 600 31.8C620 32 640 34 660 31.8C680 29.7 700 23.3 720 23.5C740 23.7 760 30.3 780 33.2C800 36 820 35 840 32.7C860 30.3 880 26.7 900 25.3C920 24 940 25 950 25.5L960 26L960 0L950 0C940 0 920 0 900 0C880 0 860 0 840 0C820 0 800 0 780 0C760 0 740 0 720 0C700 0 680 0 660 0C640 0 620 0 600 0C580 0 560 0 540 0C520 0 500 0 480 0C460 0 440 0 420 0C400 0 380 0 360 0C340 0 320 0 300 0C280 0 260 0 240 0C220 0 200 0 180 0C160 0 140 0 120 0C100 0 80 0 60 0C40 0 20 0 10 0L0 0Z" fill="#ffffff"></path></svg>