<svg id="visual" viewBox="0 0 960 300" width="960" height="300" xmlns="http://www.w3.org/2000/svg" xmlns:xlink="http://www.w3.org/1999/xlink" version="1.1"><rect x="0" y="0" width="960" height="300" fill="#fdf7e3"></rect><path d="M0 202L10 202C20 202 40 202 60 207.3C80 212.7 100 223.3 120 225C140 226.7 160 219.3 180 218.3C200 217.3 220 222.7 240 227.8C260 233 280 238 300 239.8C320 241.7 340 240.3 360 240.3C380 240.3 400 241.7 420 236.7C440 231.7 460 220.3 480 216.2C500 212 520 215 540 221.2C560 227.3 580 236.7 600 237.7C620 238.7 640 231.3 660 225.8C680 220.3 700 216.7 720 219.3C740 222 760 231 780 229.5C800 228 820 216 840 216.7C860 217.3 880 230.7 900 232.7C920 234.7 940 225.3 950 220.7L960 216L960 0L950 0C940 0 920 0 900 0C880 0 860 0 840 0C820 0 800 0 780 0C760 0 740 0 720 0C700 0 680 0 660 0C640 0 620 0 600 0C580 0 560 0 540 0C520 0 500 0 480 0C460 0 440 0 420 0C400 0 380 0 360 0C340 0 320 0 300 0C280 0 260 0 240 0C220 0 200 0 180 0C160 0 140 0 120 0C100 0 80 0 60 0C40 0 20 0 10 0L0 0Z" fill="#fdf7e3"></path><path d="M0 175L10 178.5C20 182 40 189 60 190.8C80 192.7 100 189.3 120 183.5C140 177.7 160 169.3 180 170.2C200 171 220 181 240 186.3C260 191.7 280 192.3 300 190.5C320 188.7 340 184.3 360 179.2C380 174 400 168 420 167.7C440 167.3 460 172.7 480 172.8C500 173 520 168 540 164.7C560 161.3 580 159.7 600 160C620 160.3 640 162.7 660 169.7C680 176.7 700 188.3 720 188C740 187.7 760 175.3 780 171.8C800 168.3 820 173.7 840 179.8C860 186 880 193 900 196.3C920 199.7 940 199.3 950 199.2L960 199L960 0L950 0C940 0 920 0 900 0C880 0 860 0 840 0C820 0 800 0 780 0C760 0 740 0 720 0C700 0 680 0 660 0C640 0 620 0 600 0C580 0 560 0 540 0C520 0 500 0 480 0C460 0 440 0 420 0C400 0 380 0 360 0C340 0 320 0 300 0C280 0 260 0 240 0C220 0 200 0 180 0C160 0 140 0 120 0C100 0 80 0 60 0C40 0 20 0 10 0L0 0Z" fill="#b8b3a0"></path><path d="M0 128L10 127.3C20 126.7 40 125.3 60 126.3C80 127.3 100 130.7 120 133.7C140 136.7 160 139.3 180 137.7C200 136 220 130 240 130.7C260 131.3 280 138.7 300 141.2C320 143.7 340 141.3 360 136.2C380 131 400 123 420 123.3C440 123.7 460 132.3 480 137.7C500 143 520 145 540 140.8C560 136.7 580 126.3 600 125.2C620 124 640 132 660 136.8C680 141.7 700 143.3 720 141.7C740 140 760 135 780 130.7C800 126.3 820 122.7 840 126.7C860 130.7 880 142.3 900 146.7C920 151 940 148 950 146.5L960 145L960 0L950 0C940 0 920 0 900 0C880 0 860 0 840 0C820 0 800 0 780 0C760 0 740 0 720 0C700 0 680 0 660 0C640 0 620 0 600 0C580 0 560 0 540 0C520 0 500 0 480 0C460 0 440 0 420 0C400 0 380 0 360 0C340 0 320 0 300 0C280 0 260 0 240 0C220 0 200 0 180 0C160 0 140 0 120 0C100 0 80 0 60 0C40 0 20 0 10 0L0 0Z" fill="#787362"></path><path d="M0 97L10 97.8C20 98.7 40 100.3 60 97.2C80 94 100 86 120 84.7C140 83.3 160 88.7 180 90C200 91.3 220 88.7 240 91.3C260 94 280 102 300 99.2C320 96.3 340 82.7 360 79.5C380 76.3 400 83.7 420 89.2C440 94.7 460 98.3 480 100.3C500 102.3 520 102.7 540 96.8C560 91 580 79 600 78.2C620 77.3 640 87.7 660 94.2C680 100.7 700 103.3 720 98.8C740 94.3 760 82.7 780 83.2C800 83.7 820 96.3 840 97.8C860 99.3 880 89.7 900 88.8C920 88 940 96 950 100L960 104L960 0L950 0C940 0 920 0 900 0C880 0 860 0 840 0C820 0 800 0 780 0C760 0 740 0 720 0C700 0 680 0 660 0C640 0 620 0 600 0C580 0 560 0 540 0C520 0 500 0 480 0C460 0 440 0 420 0C400 0 380 0 360 0C340 0 320 0 300 0C280 0 260 0 240 0C220 0 200 0 180 0C160 0 140 0 120 0C100 0 80 0 60 0C40 0 20 0 10 0L0 0Z" fill="#3e3a2a"></path><path d="M0 30L10 33.2C20 36.3 40 42.7 60 45.8C80 49 100 49 120 44.8C140 40.7 160 32.3 180 35C200 37.7 220 51.3 240 56.5C260 61.7 280 58.3 300 55C320 51.7 340 48.3 360 46C380 43.7 400 42.3 420 43.2C440 44 460 47 480 46C500 45 520 40 540 38.2C560 36.3 580 37.7 600 40.2C620 42.7 640 46.3 660 49.8C680 53.3 700 56.7 720 56.5C740 56.3 760 52.7 780 46.5C800 40.3 820 31.7 840 34C860 36.3 880 49.7 900 50.8C920 52 940 41 950 35.5L960 30L960 0L950 0C940 0 920 0 900 0C880 0 860 0 840 0C820 0 800 0 780 0C760 0 740 0 720 0C700 0 680 0 660 0C640 0 620 0 600 0C580 0 560 0 540 0C520 0 500 0 480 0C460 0 440 0 420 0C400 0 380 0 360 0C340 0 320 0 300 0C280 0 260 0 240 0C220 0 200 0 180 0C160 0 140 0 120 0C100 0 80 0 60 0C40 0 20 0 10 0L0 0Z" fill="#000000"></path></svg>