<svg id="visual" viewBox="0 0 960 100" width="960" height="100" xmlns="http://www.w3.org/2000/svg" xmlns:xlink="http://www.w3.org/1999/xlink" version="1.1"><rect x="0" y="0" width="960" height="100" fill="#000000"></rect><path d="M0 35L13.3 37.5C26.7 40 53.3 45 80 49C106.7 53 133.3 56 160 54.2C186.7 52.3 213.3 45.7 240 44.3C266.7 43 293.3 47 320 50.2C346.7 53.3 373.3 55.7 400 54.8C426.7 54 453.3 50 480 46.2C506.7 42.3 533.3 38.7 560 37.8C586.7 37 613.3 39 640 43.3C666.7 47.7 693.3 54.3 720 55.3C746.7 56.3 773.3 51.7 800 48.8C826.7 46 853.3 45 880 45.3C906.7 45.7 933.3 47.3 946.7 48.2L960 49L960 101L946.7 101C933.3 101 906.7 101 880 101C853.3 101 826.7 101 800 101C773.3 101 746.7 101 720 101C693.3 101 666.7 101 640 101C613.3 101 586.7 101 560 101C533.3 101 506.7 101 480 101C453.3 101 426.7 101 400 101C373.3 101 346.7 101 320 101C293.3 101 266.7 101 240 101C213.3 101 186.7 101 160 101C133.3 101 106.7 101 80 101C53.3 101 26.7 101 13.3 101L0 101Z" fill="#595959" stroke-linecap="round" stroke-linejoin="miter"></path></svg>