<svg id="visual" viewBox="0 0 500 1920" width="500" height="1920" xmlns="http://www.w3.org/2000/svg" xmlns:xlink="http://www.w3.org/1999/xlink" version="1.1"><path d="M96 1920L102.7 1813.3C109.3 1706.7 122.7 1493.3 130.5 1280C138.3 1066.7 140.7 853.3 147.7 640C154.7 426.7 166.3 213.3 172.2 106.7L178 0L500 0L500 106.7C500 213.3 500 426.7 500 640C500 853.3 500 1066.7 500 1280C500 1493.3 500 1706.7 500 1813.3L500 1920Z" fill="#000000"></path><path d="M205 1920L201.2 1813.3C197.3 1706.7 189.7 1493.3 185.3 1280C181 1066.7 180 853.3 173 640C166 426.7 153 213.3 146.5 106.7L140 0L500 0L500 106.7C500 213.3 500 426.7 500 640C500 853.3 500 1066.7 500 1280C500 1493.3 500 1706.7 500 1813.3L500 1920Z" fill="#292929"></path><path d="M229 1920L225.8 1813.3C222.7 1706.7 216.3 1493.3 225.3 1280C234.3 1066.7 258.7 853.3 269 640C279.3 426.7 275.7 213.3 273.8 106.7L272 0L500 0L500 106.7C500 213.3 500 426.7 500 640C500 853.3 500 1066.7 500 1280C500 1493.3 500 1706.7 500 1813.3L500 1920Z" fill="#4e4e4e"></path><path d="M306 1920L298.3 1813.3C290.7 1706.7 275.3 1493.3 278.7 1280C282 1066.7 304 853.3 302.3 640C300.7 426.7 275.3 213.3 262.7 106.7L250 0L500 0L500 106.7C500 213.3 500 426.7 500 640C500 853.3 500 1066.7 500 1280C500 1493.3 500 1706.7 500 1813.3L500 1920Z" fill="#777777"></path><path d="M353 1920L348.7 1813.3C344.3 1706.7 335.7 1493.3 332 1280C328.3 1066.7 329.7 853.3 335.5 640C341.3 426.7 351.7 213.3 356.8 106.7L362 0L500 0L500 106.7C500 213.3 500 426.7 500 640C500 853.3 500 1066.7 500 1280C500 1493.3 500 1706.7 500 1813.3L500 1920Z" fill="#a2a2a2"></path><path d="M367 1920L370.7 1813.3C374.3 1706.7 381.7 1493.3 389 1280C396.3 1066.7 403.7 853.3 401.2 640C398.7 426.7 386.3 213.3 380.2 106.7L374 0L500 0L500 106.7C500 213.3 500 426.7 500 640C500 853.3 500 1066.7 500 1280C500 1493.3 500 1706.7 500 1813.3L500 1920Z" fill="#d0d0d0"></path><path d="M463 1920L455.8 1813.3C448.7 1706.7 434.3 1493.3 432.3 1280C430.3 1066.7 440.7 853.3 447.5 640C454.3 426.7 457.7 213.3 459.3 106.7L461 0L500 0L500 106.7C500 213.3 500 426.7 500 640C500 853.3 500 1066.7 500 1280C500 1493.3 500 1706.7 500 1813.3L500 1920Z" fill="#ffffff"></path></svg>